<svg width="92" height="55" viewBox="0 0 92 55" fill="none" xmlns="http://www.w3.org/2000/svg">
<path d="M6.384 29.42C5.88 29.42 5.348 29.3827 4.788 29.308C4.228 29.252 3.68667 29.168 3.164 29.056C2.64133 28.944 2.16533 28.8227 1.736 28.692C1.30667 28.5613 0.970667 28.44 0.728 28.328L1.54 24.856C2.02533 25.0613 2.64133 25.2853 3.388 25.528C4.15333 25.752 5.096 25.864 6.216 25.864C7.504 25.864 8.44667 25.6213 9.044 25.136C9.64133 24.6507 9.94 23.9973 9.94 23.176C9.94 22.672 9.828 22.252 9.604 21.916C9.39867 21.5613 9.10933 21.2813 8.736 21.076C8.36267 20.852 7.91467 20.7027 7.392 20.628C6.888 20.5347 6.34667 20.488 5.768 20.488H4.144V17.128H5.992C6.40267 17.128 6.79467 17.0907 7.168 17.016C7.56 16.9413 7.90533 16.82 8.204 16.652C8.50267 16.4653 8.736 16.2227 8.904 15.924C9.09067 15.6067 9.184 15.2147 9.184 14.748C9.184 14.3933 9.10933 14.0853 8.96 13.824C8.81067 13.5627 8.61467 13.348 8.372 13.18C8.148 13.012 7.87733 12.8907 7.56 12.816C7.26133 12.7227 6.95333 12.676 6.636 12.676C5.83333 12.676 5.08667 12.7973 4.396 13.04C3.724 13.2827 3.108 13.5813 2.548 13.936L1.064 10.884C1.36267 10.6973 1.708 10.5013 2.1 10.296C2.51067 10.0907 2.95867 9.904 3.444 9.736C3.92933 9.568 4.44267 9.428 4.984 9.316C5.544 9.204 6.132 9.148 6.748 9.148C7.88667 9.148 8.86667 9.288 9.688 9.568C10.528 9.82933 11.2187 10.212 11.76 10.716C12.3013 11.2013 12.7027 11.78 12.964 12.452C13.2253 13.1053 13.356 13.824 13.356 14.608C13.356 15.3733 13.1413 16.12 12.712 16.848C12.2827 17.5573 11.704 18.0987 10.976 18.472C11.984 18.8827 12.7587 19.4987 13.3 20.32C13.86 21.1227 14.14 22.0933 14.14 23.232C14.14 24.128 13.9907 24.9587 13.692 25.724C13.3933 26.4707 12.9267 27.124 12.292 27.684C11.6573 28.2253 10.8453 28.6547 9.856 28.972C8.88533 29.2707 7.728 29.42 6.384 29.42ZM22.5221 25.444C22.7274 25.4627 22.9607 25.4813 23.2221 25.5C23.5021 25.5 23.8287 25.5 24.2021 25.5C26.3861 25.5 28.0007 24.9493 29.0461 23.848C30.1101 22.7467 30.6421 21.2253 30.6421 19.284C30.6421 17.2493 30.1381 15.7093 29.1301 14.664C28.1221 13.6187 26.5261 13.096 24.3421 13.096C24.0434 13.096 23.7354 13.1053 23.4181 13.124C23.1007 13.124 22.8021 13.1427 22.5221 13.18V25.444ZM35.1501 19.284C35.1501 20.964 34.8887 22.4293 34.3661 23.68C33.8434 24.9307 33.0967 25.9667 32.1261 26.788C31.1741 27.6093 30.0074 28.2253 28.6261 28.636C27.2447 29.0467 25.6954 29.252 23.9781 29.252C23.1941 29.252 22.2794 29.2147 21.2341 29.14C20.1887 29.084 19.1621 28.9533 18.1541 28.748V9.848C19.1621 9.66133 20.2074 9.54 21.2901 9.484C22.3914 9.40933 23.3341 9.372 24.1181 9.372C25.7794 9.372 27.2821 9.55867 28.6261 9.932C29.9887 10.3053 31.1554 10.8933 32.1261 11.696C33.0967 12.4987 33.8434 13.5253 34.3661 14.776C34.8887 16.0267 35.1501 17.5293 35.1501 19.284ZM6.336 50.224C4.53333 50.224 3.15733 49.7227 2.208 48.72C1.26933 47.7173 0.8 46.2933 0.8 44.448C0.8 43.5307 0.944 42.7147 1.232 42C1.52 41.2747 1.91467 40.6667 2.416 40.176C2.91733 39.6747 3.51467 39.296 4.208 39.04C4.90133 38.784 5.65333 38.656 6.464 38.656C6.93333 38.656 7.36 38.6933 7.744 38.768C8.128 38.832 8.464 38.912 8.752 39.008C9.04 39.0933 9.28 39.184 9.472 39.28C9.664 39.376 9.80267 39.4507 9.888 39.504L9.168 41.52C8.82667 41.3387 8.42667 41.184 7.968 41.056C7.52 40.928 7.008 40.864 6.432 40.864C6.048 40.864 5.66933 40.928 5.296 41.056C4.93333 41.184 4.608 41.392 4.32 41.68C4.04267 41.9573 3.81867 42.32 3.648 42.768C3.47733 43.216 3.392 43.76 3.392 44.4C3.392 44.912 3.44533 45.392 3.552 45.84C3.66933 46.2773 3.85067 46.656 4.096 46.976C4.352 47.296 4.68267 47.552 5.088 47.744C5.49333 47.9253 5.984 48.016 6.56 48.016C6.92267 48.016 7.248 47.9947 7.536 47.952C7.824 47.9093 8.08 47.8613 8.304 47.808C8.528 47.744 8.72533 47.6747 8.896 47.6C9.06667 47.5253 9.22133 47.456 9.36 47.392L10.048 49.392C9.696 49.6053 9.2 49.7973 8.56 49.968C7.92 50.1387 7.17867 50.224 6.336 50.224ZM13.3448 44.448C13.3448 44.992 13.4088 45.4827 13.5368 45.92C13.6754 46.3573 13.8674 46.736 14.1128 47.056C14.3688 47.3653 14.6781 47.6053 15.0408 47.776C15.4034 47.9467 15.8194 48.032 16.2888 48.032C16.7474 48.032 17.1581 47.9467 17.5208 47.776C17.8941 47.6053 18.2034 47.3653 18.4488 47.056C18.7048 46.736 18.8968 46.3573 19.0248 45.92C19.1634 45.4827 19.2328 44.992 19.2328 44.448C19.2328 43.904 19.1634 43.4133 19.0248 42.976C18.8968 42.528 18.7048 42.1493 18.4488 41.84C18.2034 41.52 17.8941 41.2747 17.5208 41.104C17.1581 40.9333 16.7474 40.848 16.2888 40.848C15.8194 40.848 15.4034 40.9387 15.0408 41.12C14.6781 41.2907 14.3688 41.536 14.1128 41.856C13.8674 42.1653 13.6754 42.544 13.5368 42.992C13.4088 43.4293 13.3448 43.9147 13.3448 44.448ZM21.8088 44.448C21.8088 45.3973 21.6648 46.2347 21.3768 46.96C21.0994 47.6747 20.7154 48.2773 20.2248 48.768C19.7341 49.248 19.1474 49.6107 18.4648 49.856C17.7928 50.1013 17.0674 50.224 16.2888 50.224C15.5314 50.224 14.8168 50.1013 14.1448 49.856C13.4728 49.6107 12.8861 49.248 12.3848 48.768C11.8834 48.2773 11.4888 47.6747 11.2008 46.96C10.9128 46.2347 10.7688 45.3973 10.7688 44.448C10.7688 43.4987 10.9181 42.6667 11.2168 41.952C11.5154 41.2267 11.9154 40.6187 12.4168 40.128C12.9288 39.6373 13.5154 39.2693 14.1768 39.024C14.8488 38.7787 15.5528 38.656 16.2888 38.656C17.0461 38.656 17.7608 38.7787 18.4328 39.024C19.1048 39.2693 19.6914 39.6373 20.1928 40.128C20.6941 40.6187 21.0888 41.2267 21.3768 41.952C21.6648 42.6667 21.8088 43.4987 21.8088 44.448ZM26.8334 38.912C27.0254 39.264 27.244 39.7013 27.4894 40.224C27.7454 40.736 28.0067 41.296 28.2734 41.904C28.5507 42.5013 28.8227 43.1147 29.0894 43.744C29.356 44.3733 29.6067 44.9653 29.8414 45.52C30.076 44.9653 30.3267 44.3733 30.5934 43.744C30.86 43.1147 31.1267 42.5013 31.3934 41.904C31.6707 41.296 31.932 40.736 32.1774 40.224C32.4334 39.7013 32.6574 39.264 32.8494 38.912H35.1214C35.228 39.648 35.324 40.4747 35.4094 41.392C35.5054 42.2987 35.5854 43.248 35.6494 44.24C35.724 45.2213 35.788 46.208 35.8414 47.2C35.9054 48.192 35.9587 49.1253 36.0014 50H33.5694C33.5374 48.9227 33.4947 47.7493 33.4414 46.48C33.388 45.2107 33.308 43.9307 33.2014 42.64C33.0094 43.088 32.796 43.584 32.5614 44.128C32.3267 44.672 32.092 45.216 31.8574 45.76C31.6334 46.304 31.4147 46.8267 31.2014 47.328C30.988 47.8187 30.8067 48.24 30.6574 48.592H28.9134C28.764 48.24 28.5827 47.8187 28.3694 47.328C28.156 46.8267 27.932 46.304 27.6974 45.76C27.4734 45.216 27.244 44.672 27.0094 44.128C26.7747 43.584 26.5614 43.088 26.3694 42.64C26.2627 43.9307 26.1827 45.2107 26.1294 46.48C26.076 47.7493 26.0334 48.9227 26.0014 50H23.5694C23.612 49.1253 23.66 48.192 23.7134 47.2C23.7774 46.208 23.8414 45.2213 23.9054 44.24C23.98 43.248 24.06 42.2987 24.1454 41.392C24.2414 40.4747 24.3427 39.648 24.4494 38.912H26.8334ZM41.1927 38.912C41.3848 39.264 41.6034 39.7013 41.8488 40.224C42.1048 40.736 42.3661 41.296 42.6328 41.904C42.9101 42.5013 43.1821 43.1147 43.4488 43.744C43.7154 44.3733 43.9661 44.9653 44.2008 45.52C44.4354 44.9653 44.6861 44.3733 44.9528 43.744C45.2194 43.1147 45.4861 42.5013 45.7528 41.904C46.0301 41.296 46.2914 40.736 46.5368 40.224C46.7928 39.7013 47.0168 39.264 47.2088 38.912H49.4808C49.5874 39.648 49.6834 40.4747 49.7688 41.392C49.8648 42.2987 49.9448 43.248 50.0088 44.24C50.0834 45.2213 50.1474 46.208 50.2008 47.2C50.2648 48.192 50.3181 49.1253 50.3608 50H47.9288C47.8968 48.9227 47.8541 47.7493 47.8008 46.48C47.7474 45.2107 47.6674 43.9307 47.5608 42.64C47.3688 43.088 47.1554 43.584 46.9208 44.128C46.6861 44.672 46.4514 45.216 46.2168 45.76C45.9928 46.304 45.7741 46.8267 45.5608 47.328C45.3474 47.8187 45.1661 48.24 45.0168 48.592H43.2728C43.1234 48.24 42.9421 47.8187 42.7288 47.328C42.5154 46.8267 42.2914 46.304 42.0568 45.76C41.8328 45.216 41.6034 44.672 41.3688 44.128C41.1341 43.584 40.9208 43.088 40.7288 42.64C40.6221 43.9307 40.5421 45.2107 40.4888 46.48C40.4354 47.7493 40.3928 48.9227 40.3608 50H37.9288C37.9714 49.1253 38.0194 48.192 38.0728 47.2C38.1368 46.208 38.2008 45.2213 38.2648 44.24C38.3394 43.248 38.4194 42.2987 38.5048 41.392C38.6008 40.4747 38.7021 39.648 38.8088 38.912H41.1927ZM52.6081 50V38.912H60.0961V41.008H55.1041V43.184H59.5361V45.232H55.1041V47.904H60.4641V50H52.6081ZM65.5593 38.784C67.2233 38.784 68.4979 39.0827 69.3833 39.68C70.2686 40.2667 70.7113 41.184 70.7113 42.432C70.7113 43.2107 70.5299 43.8453 70.1673 44.336C69.8153 44.816 69.3033 45.1947 68.6313 45.472C68.8553 45.7493 69.0899 46.0693 69.3353 46.432C69.5806 46.784 69.8206 47.1573 70.0553 47.552C70.3006 47.936 70.5353 48.3413 70.7593 48.768C70.9833 49.184 71.1913 49.5947 71.3833 50H68.5833C68.3806 49.6373 68.1726 49.2693 67.9593 48.896C67.7566 48.5227 67.5433 48.16 67.3193 47.808C67.1059 47.456 66.8926 47.1253 66.6793 46.816C66.4659 46.496 66.2526 46.208 66.0393 45.952H64.8073V50H62.3113V39.072C62.8553 38.9653 63.4153 38.8907 63.9913 38.848C64.5779 38.8053 65.1006 38.784 65.5593 38.784ZM65.7033 40.912C65.5219 40.912 65.3566 40.9173 65.2073 40.928C65.0686 40.9387 64.9353 40.9493 64.8073 40.96V43.968H65.5113C66.4499 43.968 67.1219 43.8507 67.5273 43.616C67.9326 43.3813 68.1353 42.9813 68.1353 42.416C68.1353 41.872 67.9273 41.488 67.5113 41.264C67.1059 41.0293 66.5033 40.912 65.7033 40.912ZM77.7579 50.224C75.9552 50.224 74.5792 49.7227 73.6299 48.72C72.6912 47.7173 72.2219 46.2933 72.2219 44.448C72.2219 43.5307 72.3659 42.7147 72.6539 42C72.9419 41.2747 73.3365 40.6667 73.8379 40.176C74.3392 39.6747 74.9365 39.296 75.6299 39.04C76.3232 38.784 77.0752 38.656 77.8859 38.656C78.3552 38.656 78.7819 38.6933 79.1659 38.768C79.5499 38.832 79.8859 38.912 80.1739 39.008C80.4619 39.0933 80.7019 39.184 80.8939 39.28C81.0859 39.376 81.2245 39.4507 81.3099 39.504L80.5899 41.52C80.2485 41.3387 79.8485 41.184 79.3899 41.056C78.9419 40.928 78.4299 40.864 77.8539 40.864C77.4699 40.864 77.0912 40.928 76.7179 41.056C76.3552 41.184 76.0299 41.392 75.7419 41.68C75.4645 41.9573 75.2405 42.32 75.0699 42.768C74.8992 43.216 74.8139 43.76 74.8139 44.4C74.8139 44.912 74.8672 45.392 74.9739 45.84C75.0912 46.2773 75.2725 46.656 75.5179 46.976C75.7739 47.296 76.1045 47.552 76.5099 47.744C76.9152 47.9253 77.4059 48.016 77.9819 48.016C78.3445 48.016 78.6699 47.9947 78.9579 47.952C79.2459 47.9093 79.5019 47.8613 79.7259 47.808C79.9499 47.744 80.1472 47.6747 80.3179 47.6C80.4885 47.5253 80.6432 47.456 80.7819 47.392L81.4699 49.392C81.1179 49.6053 80.6219 49.7973 79.9819 49.968C79.3419 50.1387 78.6005 50.224 77.7579 50.224ZM83.0769 50V38.912H90.5649V41.008H85.5729V43.184H90.0049V45.232H85.5729V47.904H90.9329V50H83.0769Z" fill="white"/>
</svg>
